<svg xmlns="http://www.w3.org/2000/svg" xmlns:xlink="http://www.w3.org/1999/xlink" xmlns:s="https://github.com/nturley/netlistsvg" width="1032" height="390">
  <style>svg {
    stroke:#000;
    fill:none;
  }
  text {
    fill:#000;
    stroke:none;
    font-size:10px;
    font-weight: bold;
    font-family: "Courier New", monospace;
  }
  .nodelabel {
    text-anchor: middle;
  }
  .inputPortLabel {
    text-anchor: end;
  }
  .splitjoinBody {
    fill:#000;
  }</style>
  <g s:type="reduce_xor" transform="translate(922,353)" s:width="33" s:height="25" id="cell_$xor$m1s_complement_adder.sv:26$9">
    <s:alias val="$xor"/>
    <s:alias val="$reduce_xor"/>
    <s:alias val="$_XOR_"/>
    <path d="M3,0 A30 25 0 0 1 3,25 A30 25 0 0 0 33,12.5 A30 25 0 0 0 3,0" class="cell_$xor$m1s_complement_adder.sv:26$9"/>
    <path d="M0,0 A30 25 0 0 1 0,25" class="cell_$xor$m1s_complement_adder.sv:26$9"/>
    <g s:x="3" s:y="5" s:pid="A"/>
    <g s:x="3" s:y="20" s:pid="B"/>
    <g s:x="33" s:y="12.5" s:pid="Y"/>
  </g>
  <g s:type="generic" transform="translate(744,22)" s:width="30" s:height="40" id="cell_g_adder[0].full_adder_i">
    <text x="15" y="-4" class="nodelabel cell_g_adder[0].full_adder_i" s:attribute="ref">full_adder</text>
    <rect width="30" height="60" s:generic="body" class="cell_g_adder[0].full_adder_i"/>
    <g transform="translate(0,10)" s:x="0" s:y="10" s:pid="in0" id="port_g_adder[0].full_adder_i~A">
      <text x="-3" y="-4" class="inputPortLabel cell_g_adder[0].full_adder_i">A</text>
    </g>
    <g transform="translate(0,30)" s:x="0" s:y="10" s:pid="in0" id="port_g_adder[0].full_adder_i~B">
      <text x="-3" y="-4" class="inputPortLabel cell_g_adder[0].full_adder_i">B</text>
    </g>
    <g transform="translate(0,50)" s:x="0" s:y="10" s:pid="in0" id="port_g_adder[0].full_adder_i~Cin">
      <text x="-3" y="-4" class="inputPortLabel cell_g_adder[0].full_adder_i">Cin</text>
    </g>
    <g transform="translate(30,10)" s:x="30" s:y="10" s:pid="out0" id="port_g_adder[0].full_adder_i~Cout">
      <text x="5" y="-4" style="fill:#000; stroke:none" class="cell_g_adder[0].full_adder_i">Cout</text>
    </g>
    <g transform="translate(30,30)" s:x="30" s:y="10" s:pid="out0" id="port_g_adder[0].full_adder_i~S">
      <text x="5" y="-4" style="fill:#000; stroke:none" class="cell_g_adder[0].full_adder_i">S</text>
    </g>
  </g>
  <g s:type="generic" transform="translate(168,115)" s:width="30" s:height="40" id="cell_g_adder[1].full_adder_i">
    <text x="15" y="-4" class="nodelabel cell_g_adder[1].full_adder_i" s:attribute="ref">full_adder</text>
    <rect width="30" height="60" s:generic="body" class="cell_g_adder[1].full_adder_i"/>
    <g transform="translate(0,10)" s:x="0" s:y="10" s:pid="in0" id="port_g_adder[1].full_adder_i~A">
      <text x="-3" y="-4" class="inputPortLabel cell_g_adder[1].full_adder_i">A</text>
    </g>
    <g transform="translate(0,30)" s:x="0" s:y="10" s:pid="in0" id="port_g_adder[1].full_adder_i~B">
      <text x="-3" y="-4" class="inputPortLabel cell_g_adder[1].full_adder_i">B</text>
    </g>
    <g transform="translate(0,50)" s:x="0" s:y="10" s:pid="in0" id="port_g_adder[1].full_adder_i~Cin">
      <text x="-3" y="-4" class="inputPortLabel cell_g_adder[1].full_adder_i">Cin</text>
    </g>
    <g transform="translate(30,10)" s:x="30" s:y="10" s:pid="out0" id="port_g_adder[1].full_adder_i~Cout">
      <text x="5" y="-4" style="fill:#000; stroke:none" class="cell_g_adder[1].full_adder_i">Cout</text>
    </g>
    <g transform="translate(30,30)" s:x="30" s:y="10" s:pid="out0" id="port_g_adder[1].full_adder_i~S">
      <text x="5" y="-4" style="fill:#000; stroke:none" class="cell_g_adder[1].full_adder_i">S</text>
    </g>
  </g>
  <g s:type="generic" transform="translate(360,301.5)" s:width="30" s:height="40" id="cell_g_adder[2].full_adder_i">
    <text x="15" y="-4" class="nodelabel cell_g_adder[2].full_adder_i" s:attribute="ref">full_adder</text>
    <rect width="30" height="60" s:generic="body" class="cell_g_adder[2].full_adder_i"/>
    <g transform="translate(0,10)" s:x="0" s:y="10" s:pid="in0" id="port_g_adder[2].full_adder_i~A">
      <text x="-3" y="-4" class="inputPortLabel cell_g_adder[2].full_adder_i">A</text>
    </g>
    <g transform="translate(0,30)" s:x="0" s:y="10" s:pid="in0" id="port_g_adder[2].full_adder_i~B">
      <text x="-3" y="-4" class="inputPortLabel cell_g_adder[2].full_adder_i">B</text>
    </g>
    <g transform="translate(0,50)" s:x="0" s:y="10" s:pid="in0" id="port_g_adder[2].full_adder_i~Cin">
      <text x="-3" y="-4" class="inputPortLabel cell_g_adder[2].full_adder_i">Cin</text>
    </g>
    <g transform="translate(30,10)" s:x="30" s:y="10" s:pid="out0" id="port_g_adder[2].full_adder_i~Cout">
      <text x="5" y="-4" style="fill:#000; stroke:none" class="cell_g_adder[2].full_adder_i">Cout</text>
    </g>
    <g transform="translate(30,30)" s:x="30" s:y="10" s:pid="out0" id="port_g_adder[2].full_adder_i~S">
      <text x="5" y="-4" style="fill:#000; stroke:none" class="cell_g_adder[2].full_adder_i">S</text>
    </g>
  </g>
  <g s:type="generic" transform="translate(552,177.5)" s:width="30" s:height="40" id="cell_g_adder[3].full_adder_i">
    <text x="15" y="-4" class="nodelabel cell_g_adder[3].full_adder_i" s:attribute="ref">full_adder</text>
    <rect width="30" height="60" s:generic="body" class="cell_g_adder[3].full_adder_i"/>
    <g transform="translate(0,10)" s:x="0" s:y="10" s:pid="in0" id="port_g_adder[3].full_adder_i~A">
      <text x="-3" y="-4" class="inputPortLabel cell_g_adder[3].full_adder_i">A</text>
    </g>
    <g transform="translate(0,30)" s:x="0" s:y="10" s:pid="in0" id="port_g_adder[3].full_adder_i~B">
      <text x="-3" y="-4" class="inputPortLabel cell_g_adder[3].full_adder_i">B</text>
    </g>
    <g transform="translate(0,50)" s:x="0" s:y="10" s:pid="in0" id="port_g_adder[3].full_adder_i~Cin">
      <text x="-3" y="-4" class="inputPortLabel cell_g_adder[3].full_adder_i">Cin</text>
    </g>
    <g transform="translate(30,10)" s:x="30" s:y="10" s:pid="out0" id="port_g_adder[3].full_adder_i~Cout">
      <text x="5" y="-4" style="fill:#000; stroke:none" class="cell_g_adder[3].full_adder_i">Cout</text>
    </g>
    <g transform="translate(30,30)" s:x="30" s:y="10" s:pid="out0" id="port_g_adder[3].full_adder_i~S">
      <text x="5" y="-4" style="fill:#000; stroke:none" class="cell_g_adder[3].full_adder_i">S</text>
    </g>
  </g>
  <g s:type="inputExt" transform="translate(12,105.5)" s:width="30" s:height="20" id="cell_A">
    <text x="15" y="-4" class="nodelabel cell_A" s:attribute="ref">A</text>
    <s:alias val="$_inputExt_"/>
    <path d="M0,0 L0,20 L15,20 L30,10 L15,0 Z" class="cell_A"/>
    <g s:x="28" s:y="10" s:pid="Y"/>
  </g>
  <g s:type="inputExt" transform="translate(12,220.5)" s:width="30" s:height="20" id="cell_B">
    <text x="15" y="-4" class="nodelabel cell_B" s:attribute="ref">B</text>
    <s:alias val="$_inputExt_"/>
    <path d="M0,0 L0,20 L15,20 L30,10 L15,0 Z" class="cell_B"/>
    <g s:x="28" s:y="10" s:pid="Y"/>
  </g>
  <g s:type="outputExt" transform="translate(990,52.5)" s:width="30" s:height="20" id="cell_S">
    <text x="15" y="-4" class="nodelabel cell_S" s:attribute="ref">S</text>
    <s:alias val="$_outputExt_"/>
    <path d="M30,0 L30,20 L15,20 L0,10 L15,0 Z" class="cell_S"/>
    <g s:x="0" s:y="10" s:pid="A"/>
  </g>
  <g s:type="outputExt" transform="translate(990,355.5)" s:width="30" s:height="20" id="cell_OF">
    <text x="15" y="-4" class="nodelabel cell_OF" s:attribute="ref">OF</text>
    <s:alias val="$_outputExt_"/>
    <path d="M30,0 L30,20 L15,20 L0,10 L15,0 Z" class="cell_OF"/>
    <g s:x="0" s:y="10" s:pid="A"/>
  </g>
  <g s:type="join" transform="translate(932.75,42)" s:width="4" s:height="40" id="cell_$join$,10,11,12,13,">
    <rect width="5" height="80" class="splitjoinBody" s:generic="body"/>
    <s:alias val="$_join_"/>
    <g s:x="5" s:y="20" s:pid="out"/>
    <g transform="translate(0,10)" s:x="0" s:y="10" s:pid="in0">
      <text x="-3" y="-4" class="inputPortLabel">0</text>
    </g>
    <g transform="translate(0,30)" s:x="0" s:y="10" s:pid="in0">
      <text x="-3" y="-4" class="inputPortLabel">1</text>
    </g>
    <g transform="translate(0,50)" s:x="0" s:y="10" s:pid="in0">
      <text x="-3" y="-4" class="inputPortLabel">2</text>
    </g>
    <g transform="translate(0,70)" s:x="0" s:y="10" s:pid="in0">
      <text x="-3" y="-4" class="inputPortLabel">3</text>
    </g>
  </g>
  <g s:type="split" transform="translate(77,95)" s:width="5" s:height="40" id="cell_$split$,2,3,4,5,">
    <rect width="5" height="80" class="splitjoinBody" s:generic="body"/>
    <s:alias val="$_split_"/>
    <g s:x="0" s:y="20" s:pid="in"/>
    <g transform="translate(4,10)" s:x="4" s:y="10" s:pid="out0">
      <text x="5" y="-4">0</text>
    </g>
    <g transform="translate(4,30)" s:x="4" s:y="10" s:pid="out0">
      <text x="5" y="-4">1</text>
    </g>
    <g transform="translate(4,50)" s:x="4" s:y="10" s:pid="out0">
      <text x="5" y="-4">2</text>
    </g>
    <g transform="translate(4,70)" s:x="4" s:y="10" s:pid="out0">
      <text x="5" y="-4">3</text>
    </g>
  </g>
  <g s:type="split" transform="translate(77,210)" s:width="5" s:height="40" id="cell_$split$,6,7,8,9,">
    <rect width="5" height="80" class="splitjoinBody" s:generic="body"/>
    <s:alias val="$_split_"/>
    <g s:x="0" s:y="20" s:pid="in"/>
    <g transform="translate(4,10)" s:x="4" s:y="10" s:pid="out0">
      <text x="5" y="-4">0</text>
    </g>
    <g transform="translate(4,30)" s:x="4" s:y="10" s:pid="out0">
      <text x="5" y="-4">1</text>
    </g>
    <g transform="translate(4,50)" s:x="4" s:y="10" s:pid="out0">
      <text x="5" y="-4">2</text>
    </g>
    <g transform="translate(4,70)" s:x="4" s:y="10" s:pid="out0">
      <text x="5" y="-4">3</text>
    </g>
  </g>
  <line x1="583" x2="710" y1="188" y2="188" class="net_15"/>
  <line x1="710" x2="710" y1="188" y2="358" class="net_15"/>
  <circle cx="710" cy="188" r="2" style="fill:#000" class="net_15"/>
  <line x1="710" x2="925" y1="358" y2="358" class="net_15"/>
  <line x1="583" x2="710" y1="188" y2="188" class="net_15"/>
  <line x1="710" x2="710" y1="188" y2="72.5" class="net_15"/>
  <line x1="710" x2="744" y1="72.5" y2="72.5" class="net_15"/>
  <line x1="391" x2="518" y1="312" y2="312" class="net_16"/>
  <line x1="518" x2="518" y1="312" y2="373" class="net_16"/>
  <circle cx="518" cy="312" r="2" style="fill:#000" class="net_16"/>
  <line x1="518" x2="925" y1="373" y2="373" class="net_16"/>
  <line x1="391" x2="518" y1="312" y2="312" class="net_16"/>
  <line x1="518" x2="518" y1="312" y2="228" class="net_16"/>
  <line x1="518" x2="552" y1="228" y2="228" class="net_16"/>
  <line x1="82" x2="99" y1="105.5" y2="105.5" class="net_2"/>
  <line x1="99" x2="99" y1="105.5" y2="32.5" class="net_2"/>
  <line x1="99" x2="744" y1="32.5" y2="32.5" class="net_2"/>
  <line x1="82" x2="109" y1="220.5" y2="220.5" class="net_6"/>
  <line x1="109" x2="109" y1="220.5" y2="52.5" class="net_6"/>
  <line x1="109" x2="744" y1="52.5" y2="52.5" class="net_6"/>
  <line x1="82" x2="168" y1="125.5" y2="125.5" class="net_3"/>
  <line x1="82" x2="139" y1="240.5" y2="240.5" class="net_7"/>
  <line x1="139" x2="139" y1="240.5" y2="145.5" class="net_7"/>
  <line x1="139" x2="168" y1="145.5" y2="145.5" class="net_7"/>
  <line x1="775" x2="892" y1="32.5" y2="32.5" class="net_17"/>
  <line x1="892" x2="892" y1="32.5" y2="95" class="net_17"/>
  <line x1="892" x2="129" y1="95" y2="95" class="net_17"/>
  <line x1="129" x2="129" y1="95" y2="165.5" class="net_17"/>
  <line x1="129" x2="168" y1="165.5" y2="165.5" class="net_17"/>
  <line x1="82" x2="119" y1="145.5" y2="145.5" class="net_4"/>
  <line x1="119" x2="119" y1="145.5" y2="312" class="net_4"/>
  <line x1="119" x2="360" y1="312" y2="312" class="net_4"/>
  <line x1="82" x2="99" y1="260.5" y2="260.5" class="net_8"/>
  <line x1="99" x2="99" y1="260.5" y2="332" class="net_8"/>
  <line x1="99" x2="360" y1="332" y2="332" class="net_8"/>
  <line x1="199" x2="316" y1="125.5" y2="125.5" class="net_18"/>
  <line x1="316" x2="316" y1="125.5" y2="352" class="net_18"/>
  <line x1="316" x2="360" y1="352" y2="352" class="net_18"/>
  <line x1="82" x2="99" y1="165.5" y2="165.5" class="net_5"/>
  <line x1="99" x2="99" y1="165.5" y2="188" class="net_5"/>
  <line x1="99" x2="552" y1="188" y2="188" class="net_5"/>
  <line x1="82" x2="508" y1="280.5" y2="280.5" class="net_9"/>
  <line x1="508" x2="508" y1="280.5" y2="208" class="net_9"/>
  <line x1="508" x2="552" y1="208" y2="208" class="net_9"/>
  <line x1="938.75" x2="990" y1="62.5" y2="62.5" class="net_10,11,12,13"/>
  <line x1="955" x2="990" y1="365.5" y2="365.5" class="net_14"/>
  <line x1="775" x2="932.75" y1="52.5" y2="52.5" class="net_10"/>
  <line x1="199" x2="902" y1="145.5" y2="145.5" class="net_11"/>
  <line x1="902" x2="902" y1="145.5" y2="72.5" class="net_11"/>
  <line x1="902" x2="932.75" y1="72.5" y2="72.5" class="net_11"/>
  <line x1="391" x2="912" y1="332" y2="332" class="net_12"/>
  <line x1="912" x2="912" y1="332" y2="92.5" class="net_12"/>
  <line x1="912" x2="932.75" y1="92.5" y2="92.5" class="net_12"/>
  <line x1="583" x2="700" y1="208" y2="208" class="net_13"/>
  <line x1="700" x2="700" y1="208" y2="343" class="net_13"/>
  <line x1="700" x2="933.25" y1="343" y2="343" class="net_13"/>
  <line x1="933.25" x2="933.25" y1="343" y2="113" class="net_13"/>
  <line x1="40" x2="77" y1="115.5" y2="115.5" class="net_2,3,4,5"/>
  <line x1="40" x2="77" y1="230.5" y2="230.5" class="net_6,7,8,9"/>
</svg>
